<svg width="34" height="34" viewBox="0 0 34 34" fill="none" xmlns="http://www.w3.org/2000/svg">
<g clip-path="url(#clip0_3800_30113)">
<path d="M4.77245 15.4102L4.8626 15.32C15.8829 5.49829 26.1554 12.8115 29.0457 15.2882C29.271 15.4802 29.4562 15.7147 29.5907 15.9784C29.7252 16.2421 29.8063 16.5297 29.8295 16.8248C29.8527 17.1199 29.8174 17.4167 29.7256 17.6981C29.6339 17.9795 29.4875 18.2401 29.2949 18.4649L26.3728 21.387C26.1606 21.5996 25.8894 21.7436 25.5944 21.8004C25.2994 21.8571 24.9941 21.8239 24.7182 21.7052L21.9286 20.5278C21.6582 20.4127 21.4276 20.2206 21.2654 19.9754C21.1033 19.7303 21.0167 19.4429 21.0165 19.149L21.0058 16.8792C19.8267 16.0529 18.4222 15.6088 16.9823 15.6069C15.5425 15.605 14.1368 16.0454 12.9554 16.8686L12.9448 19.1596C12.9408 19.4541 12.8501 19.7409 12.6841 19.9842C12.5181 20.2275 12.2842 20.4166 12.0115 20.5278L9.21131 21.7264C8.93585 21.8397 8.63291 21.8684 8.34107 21.8089C8.04923 21.7494 7.7817 21.6044 7.57259 21.3923L4.77245 18.5921C4.35049 18.1702 4.11344 17.5979 4.11344 17.0011C4.11344 16.4044 4.35049 15.8321 4.77245 15.4102ZM28.107 17.5315C28.2476 17.3908 28.3266 17.2001 28.3266 17.0011C28.3266 16.8022 28.2476 16.6115 28.107 16.4708L28.0645 16.4284C24.681 13.5328 15.6919 7.67264 5.86493 16.439C5.79095 16.5044 5.7306 16.5837 5.68735 16.6724C5.6441 16.7612 5.61879 16.8576 5.61288 16.9561C5.60697 17.0547 5.62056 17.1534 5.6529 17.2467C5.68523 17.3399 5.73566 17.4259 5.80129 17.4997L8.63325 20.3316L11.4334 19.1331L11.444 16.0996L11.7304 15.8768C16.9223 11.841 22.162 15.8291 22.2097 15.8768L22.4961 16.0996L22.512 19.1278L25.3068 20.3316L28.107 17.5315Z" fill="white"/>
</g>
<defs>
<clipPath id="clip0_3800_30113">
<rect width="24" height="24" fill="white" transform="translate(33.9414 17) rotate(135)"/>
</clipPath>
</defs>
</svg>
