<svg width="24" height="24" viewBox="0 0 24 24" fill="none" xmlns="http://www.w3.org/2000/svg">
<path d="M8.25 15.75H6.75V14.25C6.7506 13.6534 6.98784 13.0815 7.40967 12.6597C7.8315 12.2378 8.40345 12.0006 9 12H13.5V13.5H9C8.80115 13.5002 8.6105 13.5793 8.46989 13.7199C8.32928 13.8605 8.2502 14.0512 8.25 14.25V15.75ZM11.25 11.25C10.6567 11.25 10.0766 11.0741 9.58329 10.7444C9.08994 10.4148 8.70542 9.94623 8.47836 9.39805C8.2513 8.84987 8.19189 8.24667 8.30764 7.66473C8.4234 7.08279 8.70912 6.54824 9.12868 6.12868C9.54824 5.70912 10.0828 5.4234 10.6647 5.30765C11.2467 5.19189 11.8499 5.2513 12.398 5.47836C12.9462 5.70543 13.4148 6.08994 13.7444 6.58329C14.0741 7.07664 14.25 7.65666 14.25 8.25C14.249 9.04535 13.9326 9.80783 13.3702 10.3702C12.8078 10.9326 12.0453 11.249 11.25 11.25ZM11.25 6.75C10.9533 6.75 10.6633 6.83797 10.4166 7.0028C10.17 7.16762 9.97771 7.40189 9.86418 7.67598C9.75065 7.95007 9.72094 8.25167 9.77882 8.54264C9.8367 8.83361 9.97956 9.10088 10.1893 9.31066C10.3991 9.52044 10.6664 9.6633 10.9574 9.72118C11.2483 9.77906 11.5499 9.74935 11.824 9.63582C12.0981 9.52229 12.3324 9.33003 12.4972 9.08336C12.662 8.83668 12.75 8.54667 12.75 8.25C12.7496 7.8523 12.5914 7.471 12.3102 7.18978C12.029 6.90856 11.6477 6.7504 11.25 6.75ZM18 16.5C17.4067 16.5 16.8266 16.3241 16.3333 15.9944C15.8399 15.6648 15.4554 15.1962 15.2284 14.6481C15.0013 14.0999 14.9419 13.4967 15.0576 12.9147C15.1734 12.3328 15.4591 11.7982 15.8787 11.3787C16.2982 10.9591 16.8328 10.6734 17.4147 10.5576C17.9967 10.4419 18.5999 10.5013 19.1481 10.7284C19.6962 10.9554 20.1648 11.3399 20.4944 11.8333C20.8241 12.3266 21 12.9067 21 13.5C20.999 14.2953 20.6826 15.0578 20.1202 15.6202C19.5578 16.1826 18.7953 16.499 18 16.5ZM18 12C17.7033 12 17.4133 12.088 17.1666 12.2528C16.92 12.4176 16.7277 12.6519 16.6142 12.926C16.5006 13.2001 16.4709 13.5017 16.5288 13.7926C16.5867 14.0836 16.7296 14.3509 16.9393 14.5607C17.1491 14.7704 17.4164 14.9133 17.7074 14.9712C17.9983 15.0291 18.2999 14.9994 18.574 14.8858C18.8481 14.7723 19.0824 14.58 19.2472 14.3334C19.412 14.0867 19.5 13.7967 19.5 13.5C19.4996 13.1023 19.3414 12.721 19.0602 12.4398C18.779 12.1586 18.3977 12.0004 18 12ZM22.5 21H21V19.5C20.9998 19.3012 20.9207 19.1105 20.7801 18.9699C20.6395 18.8293 20.4489 18.7502 20.25 18.75H15.75C15.5511 18.7502 15.3605 18.8293 15.2199 18.9699C15.0793 19.1105 15.0002 19.3012 15 19.5V21H13.5V19.5C13.5006 18.9034 13.7378 18.3315 14.1597 17.9097C14.5815 17.4878 15.1534 17.2506 15.75 17.25H20.25C20.8466 17.2506 21.4185 17.4878 21.8403 17.9097C22.2622 18.3315 22.4994 18.9034 22.5 19.5V21Z" fill="white"/>
<path d="M10.5 20.7997L6.5745 18.7073C5.4939 18.1325 4.59024 17.2742 3.96049 16.2247C3.33075 15.1752 2.99871 13.974 3.00001 12.75V3H18V7.5H19.5V3C19.4996 2.6023 19.3414 2.221 19.0602 1.93978C18.779 1.65856 18.3977 1.5004 18 1.5H3.00001C2.6023 1.5004 2.221 1.65856 1.93978 1.93978C1.65856 2.221 1.5004 2.6023 1.50001 3V12.75C1.49833 14.2458 1.90404 15.7137 2.67359 16.9964C3.44313 18.279 4.54745 19.3278 5.868 20.0303L10.5 22.5V20.7997Z" fill="white"/>
</svg>
