<svg width="20" height="20" viewBox="0 0 20 20" fill="none" xmlns="http://www.w3.org/2000/svg">
<path d="M17.5005 17.5005H10.6255C10.294 17.5001 9.9763 17.3683 9.74195 17.134C9.5076 16.8996 9.3758 16.5819 9.37547 16.2505V12.5005C9.3758 12.1691 9.5076 11.8513 9.74195 11.617C9.9763 11.3826 10.294 11.2508 10.6255 11.2505H17.5005C17.8318 11.251 18.1495 11.3828 18.3838 11.6171C18.6181 11.8514 18.75 12.1691 18.7505 12.5005V16.2505C18.75 16.5818 18.6181 16.8995 18.3838 17.1338C18.1495 17.3681 17.8318 17.5 17.5005 17.5005ZM10.6255 12.5005V16.2505H17.5017L17.5005 12.5005H10.6255ZM7.50047 6.25047V8.49172L4.81734 5.80859L3.93359 6.69234L6.61672 9.37547H4.37547V10.6255H8.75047V6.25047H7.50047Z" fill="white"/>
<path d="M8.125 13.75H2.5C2.16858 13.7497 1.85083 13.6179 1.61648 13.3835C1.38213 13.1492 1.25033 12.8314 1.25 12.5V4.375C1.25033 4.04358 1.38213 3.72583 1.61648 3.49148C1.85083 3.25713 2.16858 3.12533 2.5 3.125H16.25C16.5814 3.12533 16.8992 3.25713 17.1335 3.49148C17.3679 3.72583 17.4997 4.04358 17.5 4.375V10H16.25V4.375H2.5V12.5H8.125V13.75Z" fill="white"/>
</svg>
