<svg width="20" height="20" viewBox="0 0 20 20" fill="none" xmlns="http://www.w3.org/2000/svg">
<path d="M3.125 1.87625L6.875 1.88C7.04076 1.88 7.19973 1.94585 7.31694 2.06306C7.43415 2.18027 7.5 2.33924 7.5 2.505C7.5 2.67076 7.43415 2.82973 7.31694 2.94694C7.19973 3.06415 7.04076 3.13 6.875 3.13L3.125 3.12625V6.875C3.125 7.04076 3.05915 7.19973 2.94194 7.31694C2.82473 7.43415 2.66576 7.5 2.5 7.5C2.33424 7.5 2.17527 7.43415 2.05806 7.31694C1.94085 7.19973 1.875 7.04076 1.875 6.875V1.875H3.125V1.87625ZM3.125 18.1237V18.125H1.875V13.125C1.875 12.9592 1.94085 12.8003 2.05806 12.6831C2.17527 12.5658 2.33424 12.5 2.5 12.5C2.66576 12.5 2.82473 12.5658 2.94194 12.6831C3.05915 12.8003 3.125 12.9592 3.125 13.125V16.8737L6.875 16.87C7.04076 16.87 7.19973 16.9358 7.31694 17.0531C7.43415 17.1703 7.5 17.3292 7.5 17.495C7.5 17.6608 7.43415 17.8197 7.31694 17.9369C7.19973 18.0542 7.04076 18.12 6.875 18.12L3.125 18.1237ZM16.875 1.87625V1.875H18.125V6.875C18.125 7.04076 18.0592 7.19973 17.9419 7.31694C17.8247 7.43415 17.6658 7.5 17.5 7.5C17.3342 7.5 17.1753 7.43415 17.0581 7.31694C16.9408 7.19973 16.875 7.04076 16.875 6.875V3.12625L13.125 3.13C12.9592 3.13 12.8003 3.06415 12.6831 2.94694C12.5658 2.82973 12.5 2.67076 12.5 2.505C12.5 2.33924 12.5658 2.18027 12.6831 2.06306C12.8003 1.94585 12.9592 1.88 13.125 1.88L16.875 1.87625ZM16.875 18.1237L13.125 18.12C12.9592 18.12 12.8003 18.0542 12.6831 17.9369C12.5658 17.8197 12.5 17.6608 12.5 17.495C12.5 17.3292 12.5658 17.1703 12.6831 17.0531C12.8003 16.9358 12.9592 16.87 13.125 16.87L16.875 16.8737V13.125C16.875 12.9592 16.9408 12.8003 17.0581 12.6831C17.1753 12.5658 17.3342 12.5 17.5 12.5C17.6658 12.5 17.8247 12.5658 17.9419 12.6831C18.0592 12.8003 18.125 12.9592 18.125 13.125V18.125H16.875V18.1237Z" fill="white"/>
</svg>
