<svg width="24" height="24" viewBox="0 0 24 24" fill="none" xmlns="http://www.w3.org/2000/svg">
<path d="M12.0007 2.99968C12.1996 2.99968 12.3904 3.0787 12.531 3.21935C12.6717 3.36001 12.7507 3.55077 12.7507 3.74968V9.74969C12.7507 9.9486 12.8297 10.1394 12.9704 10.28C13.111 10.4207 13.3018 10.4997 13.5007 10.4997C13.6996 10.4997 13.8904 10.4207 14.031 10.28C14.1717 10.1394 14.2507 9.9486 14.2507 9.74969V5.24968C14.2507 5.05077 14.3297 4.86001 14.4704 4.71936C14.611 4.5787 14.8018 4.49968 15.0007 4.49968C15.1996 4.49968 15.3904 4.5787 15.531 4.71936C15.6717 4.86001 15.7507 5.05077 15.7507 5.24968V11.2497C15.7507 11.4486 15.8297 11.6394 15.9704 11.78C16.111 11.9207 16.3018 11.9997 16.5007 11.9997C16.6996 11.9997 16.8904 11.9207 17.031 11.78C17.1717 11.6394 17.2507 11.4486 17.2507 11.2497V8.24969C17.2505 8.05077 17.3293 7.85993 17.4698 7.71914C17.6103 7.57834 17.801 7.49913 17.9999 7.49893C18.1989 7.49874 18.3897 7.57756 18.5305 7.71807C18.6713 7.85859 18.7505 8.04927 18.7507 8.24818V14.2497C18.7507 15.1032 18.3712 16.1862 17.7997 17.3067C17.2387 18.4047 16.5397 19.4487 15.9982 20.1957C15.8063 20.4509 15.5565 20.6569 15.2693 20.7967C14.9822 20.9365 14.666 21.0061 14.3467 20.9997H11.6017C10.5082 20.9997 9.49119 20.1597 8.98419 18.9597C8.10819 16.8897 6.71619 15.1872 5.56419 14.0127C5.09113 13.5304 4.594 13.0723 4.07469 12.6402L4.05369 12.6237C4.21869 12.4542 4.36869 12.3417 4.50669 12.2667C4.71483 12.1466 4.9577 12.1011 5.19519 12.1377C5.70519 12.2112 6.30519 12.6162 6.96969 13.2807C7.07459 13.3858 7.20834 13.4575 7.35401 13.4865C7.49967 13.5156 7.65068 13.5007 7.78789 13.4439C7.9251 13.387 8.04233 13.2906 8.12472 13.1671C8.20712 13.0435 8.25096 12.8982 8.25069 12.7497V5.24968C8.2493 5.05077 8.32698 4.85945 8.46665 4.71782C8.60632 4.57618 8.79653 4.49583 8.99544 4.49443C9.19436 4.49304 9.38567 4.57072 9.52731 4.71039C9.66895 4.85006 9.7493 5.04027 9.75069 5.23918V9.74969C9.75069 9.9486 9.82971 10.1394 9.97036 10.28C10.111 10.4207 10.3018 10.4997 10.5007 10.4997C10.6996 10.4997 10.8904 10.4207 11.031 10.28C11.1717 10.1394 11.2507 9.9486 11.2507 9.74969V3.74968C11.2507 3.55077 11.3297 3.36001 11.4704 3.21935C11.611 3.0787 11.8018 2.99968 12.0007 2.99968ZM17.2507 6.12718V5.24968C17.2509 4.88247 17.1611 4.52079 16.9894 4.19622C16.8176 3.87165 16.569 3.59406 16.2652 3.38768C15.9615 3.18129 15.6119 3.05238 15.2469 3.01221C14.8818 2.97203 14.5125 3.0218 14.1712 3.15718C14.0412 2.68118 13.7583 2.2611 13.3661 1.96166C12.9739 1.66221 12.4941 1.5 12.0007 1.5C11.5072 1.5 11.0275 1.66221 10.6353 1.96166C10.2431 2.2611 9.9602 2.68118 9.83019 3.15718C9.48884 3.0218 9.11954 2.97203 8.75452 3.01221C8.38951 3.05238 8.03988 3.18129 7.73614 3.38768C7.4324 3.59406 7.1838 3.87165 7.01203 4.19622C6.84025 4.52079 6.75053 4.88247 6.75069 5.24968V11.1717C6.3441 10.9084 5.8876 10.7317 5.40969 10.6527C4.84942 10.5698 4.27749 10.6753 3.78369 10.9527C3.26169 11.2377 2.79669 11.7027 2.37669 12.3327C2.26826 12.4947 2.22718 12.6926 2.26219 12.8844C2.29719 13.0762 2.40551 13.2469 2.56419 13.3602L2.57019 13.3647L2.59569 13.3827L2.70369 13.4652C3.33355 13.9591 3.9308 14.4932 4.49169 15.0642C5.57319 16.1652 6.82719 17.7132 7.60269 19.5447C8.25819 21.0957 9.71019 22.4997 11.6017 22.4997H14.3467C15.4552 22.4997 16.5367 22.0092 17.2117 21.0747C17.7772 20.2962 18.5257 19.1832 19.1362 17.9877C19.7362 16.8147 20.2507 15.4677 20.2507 14.2497V8.24818C20.2506 7.88826 20.1642 7.53359 19.9987 7.21397C19.8333 6.89434 19.5935 6.61908 19.2996 6.4113C19.0057 6.20351 18.6662 6.06927 18.3097 6.01983C17.9532 5.97039 17.59 6.00721 17.2507 6.12718ZM17.2507 11.2497V11.2587V11.2497Z" fill="white"/>
</svg>
