<svg width="18" height="17" viewBox="0 0 18 17" fill="none" xmlns="http://www.w3.org/2000/svg">
<path fill-rule="evenodd" clip-rule="evenodd" d="M12.3794 0H2.57143C1.88944 0 1.23539 0.270917 0.753154 0.753154C0.270918 1.23539 0 1.88944 0 2.57143V10.2857C0 10.9677 0.270918 11.6218 0.753154 12.104C1.23539 12.5862 1.88944 12.8571 2.57143 12.8571H8.35714V11.5714H2.57143C2.23044 11.5714 1.90341 11.436 1.66229 11.1949C1.42117 10.9537 1.28571 10.6267 1.28571 10.2857V2.57143C1.28571 2.23044 1.42117 1.90341 1.66229 1.66229C1.90341 1.42117 2.23044 1.28571 2.57143 1.28571H11.7589C11.8972 0.821275 12.1085 0.388272 12.3794 0ZM16.7143 7.02681C17.1682 6.96197 17.6003 6.82938 18 6.63961V10.2857C18 10.9677 17.7291 11.6218 17.2468 12.104C16.7646 12.5862 16.1106 12.8571 15.4286 12.8571H12.3171L10.1186 16.7143L9 16.0714L11.5714 11.5714H15.4286C15.7696 11.5714 16.0966 11.436 16.3377 11.1949C16.5788 10.9537 16.7143 10.6267 16.7143 10.2857V7.02681Z" fill="white"/>
</svg>
